<?xml version="1.0" standalone="no"?><!DOCTYPE svg PUBLIC "-//W3C//DTD SVG 1.1//EN" "http://www.w3.org/Graphics/SVG/1.1/DTD/svg11.dtd"><svg t="1651745318812" class="icon" viewBox="0 0 1024 1024" version="1.1" xmlns="http://www.w3.org/2000/svg" p-id="19557" xmlns:xlink="http://www.w3.org/1999/xlink" width="200" height="200"><defs><style type="text/css"></style></defs><path d="M661.333333 960h-298.666666a298.666667 298.666667 0 0 1-298.666667-298.666667v-298.666666a298.666667 298.666667 0 0 1 298.666667-298.666667h298.666666a298.666667 298.666667 0 0 1 298.666667 298.666667v298.666666a298.666667 298.666667 0 0 1-298.666667 298.666667z m-298.666666-810.666667a213.333333 213.333333 0 0 0-213.333334 213.333334v298.666666a213.333333 213.333333 0 0 0 213.333334 213.333334h298.666666a213.333333 213.333333 0 0 0 213.333334-213.333334v-298.666666a213.333333 213.333333 0 0 0-213.333334-213.333334z" fill="#2c2c2c" p-id="19558"></path><path d="M277.333333 783.786667a42.666667 42.666667 0 0 1-42.666666-42.666667v-167.253333a42.666667 42.666667 0 0 1 85.333333 0v167.253333a42.666667 42.666667 0 0 1-42.666667 42.666667z" fill="#2c2c2c" p-id="19559"></path><path d="M449.28 789.333333H282.026667a42.666667 42.666667 0 1 1 0-85.333333h167.253333a42.666667 42.666667 0 1 1 0 85.333333z" fill="#2c2c2c" p-id="19560"></path><path d="M298.666667 768a42.666667 42.666667 0 0 1-30.293334-12.373333 42.666667 42.666667 0 0 1 0-60.16l170.666667-170.666667a42.666667 42.666667 0 0 1 60.586667 60.586667l-170.666667 170.666666A42.666667 42.666667 0 0 1 298.666667 768zM744.533333 503.466667a42.666667 42.666667 0 0 1-42.666666-42.666667V293.546667a42.666667 42.666667 0 1 1 85.333333 0v167.253333a42.666667 42.666667 0 0 1-42.666667 42.666667z" fill="#2c2c2c" p-id="19561"></path><path d="M739.84 330.666667h-167.253333a42.666667 42.666667 0 0 1 0-85.333334h167.253333a42.666667 42.666667 0 0 1 0 85.333334z" fill="#2c2c2c" p-id="19562"></path><path d="M554.666667 522.666667a42.666667 42.666667 0 0 1-30.293334-12.373334 42.666667 42.666667 0 0 1 0-60.586666l170.666667-170.666667A42.666667 42.666667 0 1 1 752.64 341.333333l-170.666667 170.666667a42.666667 42.666667 0 0 1-27.306666 10.666667z" fill="#2c2c2c" p-id="19563"></path></svg>